<?xml version="1.0" encoding="UTF-8" standalone="no"?>
<!-- Generator: Gravit.io -->

<svg
   xmlns:dc="http://purl.org/dc/elements/1.1/"
   xmlns:cc="http://creativecommons.org/ns#"
   xmlns:rdf="http://www.w3.org/1999/02/22-rdf-syntax-ns#"
   xmlns:svg="http://www.w3.org/2000/svg"
   xmlns="http://www.w3.org/2000/svg"
   xmlns:sodipodi="http://sodipodi.sourceforge.net/DTD/sodipodi-0.dtd"
   xmlns:inkscape="http://www.inkscape.org/namespaces/inkscape"
   style="isolation:isolate"
   viewBox="0 0 70 70"
   width="70pt"
   height="70pt"
   version="1.1"
   id="svg39"
   sodipodi:docname="icon.svg"
   inkscape:version="0.92.5 (2060ec1f9f, 2020-04-08)"
   inkscape:export-filename="icon.png"
   inkscape:export-xdpi="144"
   inkscape:export-ydpi="144">
  <metadata
     id="metadata43">
    <rdf:RDF>
      <cc:Work
         rdf:about="">
        <dc:format>image/svg+xml</dc:format>
        <dc:type
           rdf:resource="http://purl.org/dc/dcmitype/StillImage" />
      </cc:Work>
    </rdf:RDF>
  </metadata>
  <sodipodi:namedview
     pagecolor="#ffffff"
     bordercolor="#666666"
     borderopacity="1"
     objecttolerance="10"
     gridtolerance="10"
     guidetolerance="10"
     inkscape:pageopacity="0"
     inkscape:pageshadow="2"
     inkscape:window-width="2488"
     inkscape:window-height="1025"
     id="namedview41"
     showgrid="false"
     inkscape:zoom="6.5154837"
     inkscape:cx="37.528954"
     inkscape:cy="66.273205"
     inkscape:window-x="72"
     inkscape:window-y="27"
     inkscape:window-maximized="1"
     inkscape:current-layer="svg39"
     showguides="true"
     inkscape:guide-bbox="true">
    <sodipodi:guide
       position="73.040252,22.987288"
       orientation="-0.70710678,0.70710678"
       id="guide870"
       inkscape:locked="false" />
    <sodipodi:guide
       position="74.300846,31.885592"
       orientation="-0.70710678,0.70710678"
       id="guide872"
       inkscape:locked="false" />
    <sodipodi:guide
       position="41.896185,27.881355"
       orientation="-0.70710678,0.70710678"
       id="guide878"
       inkscape:locked="false" />
  </sodipodi:namedview>
  <defs
     id="defs5">
    <clipPath
       id="_clipPath_1MbCFfXN7E3D83z8MYwtS4Ygw67NMZ43">
      <rect
         width="70"
         height="70"
         id="rect2" />
    </clipPath>
    <clipPath
       id="_clipPath_CzGkW1YVUBuDVmXjp2JTbugGpdXyJwcb">
      <path
         id="path7"
         fill="rgb(255,255,255)"
         d=" M 4 0 L 65 0 C 69 0 70 1 70 5 L 70 65 C 70 69 69 70 65 70 L 4 70 C 1 70 0 69 0 65 L 0 5 C 0 1 1 0 4 0 Z " />
    </clipPath>
  </defs>
  <g
     id="g35"
     clip-path="url(#_clipPath_CzGkW1YVUBuDVmXjp2JTbugGpdXyJwcb)">
    <g
       id="g33">
      <linearGradient
         gradientUnits="userSpaceOnUse"
         gradientTransform="scale(70)"
         y2="-0.20710678"
         x2="0.70710677"
         y1="0.5"
         x1="0"
         id="_lgradient_1">
        <stop
           id="stop10"
           style="stop-color:#7c4c4c;stop-opacity:1"
           stop-opacity="1"
           offset="0%" />
        <stop
           id="stop12"
           style="stop-color:rgb(152,78,78)"
           stop-opacity="1"
           offset="45.785%" />
        <stop
           id="stop14"
           style="stop-color:#b07575;stop-opacity:1"
           stop-opacity="1"
           offset="100%" />
      </linearGradient>
      <path
         inkscape:connector-curvature="0"
         style="fill:url(#_lgradient_1);fill-rule:evenodd"
         id="path17"
         d="M 0,0 H 70 V 70 H 0 Z" />
      <path
         style="fill:#ffffff;fill-opacity:0.38299997;fill-rule:evenodd"
         inkscape:connector-curvature="0"
         id="path19"
         d="m 4,1 h 61 c 2.667,0 4.333,0.667 5,2 V 0 H 0 V 3 C 0.667,1.667 2,1 4,1 Z" />
      <g
         style="opacity:0.33000004"
         id="g23">
        <path
           style="fill:#393939;fill-rule:evenodd"
           inkscape:connector-curvature="0"
           id="path21"
           d="m 15.730129,69.795494 -18.17975,0.162115 -2.743288,-7.450408 c -1.2685456,-3.445202 -4,-1 -4,-4 v -22.85 l 15.632,-16.68 20.368,-4.47 16,4 7.943,5.353 -4.943,5.647 v 8.576 0 l 18.317601,-3.265739 5.380439,8.09266 -12.198993,12.992005 -5.235091,2.768497 8.734036,0.577255 -10.284673,10.284673 c -9.598981,-1.351303 -19.119186,-0.02066 -28.70298,0.786652 z"
           sodipodi:nodetypes="ccsscccccccccccccccc" />
      </g>
      <path
         style="fill:#000000;fill-opacity:0.38299997;fill-rule:evenodd"
         inkscape:connector-curvature="0"
         id="path25"
         d="m 4,69 h 61 c 2.667,0 4.333,-1 5,-3 v 4 H 0 v -4 c 0.667,2 2,3 4,3 z" />
      <g
         style="opacity:0.3"
         id="g29">
        <path
           style="fill:#000000"
           inkscape:connector-curvature="0"
           id="path27"
           d="m 45.674091,27.998128 c 0.094,0.068 0.15,0.177 0.15,0.293 v 9.393 c 0,0.146 -0.087,0.277 -0.222,0.333 l -17.28,7.147 c -0.111,0.046 -0.238,0.034 -0.338,-0.034 -0.1,-0.067 -0.16,-0.18 -0.16,-0.3 v -17.279 c 0,-0.153 0.096,-0.288 0.24,-0.339 0.144,-0.051 0.304,-0.006 0.4,0.113 l 3.85,4.76 c 0,0 0.182,0.243 0.462,0.146 0.334,-0.115 12.572,-4.281 12.572,-4.281 0.11,-0.038 0.231,-0.02 0.326,0.048 z m 5.075,-4.873 c 0.072,0.091 0.094,0.212 0.058,0.322 -0.038,0.112 -0.127,0.198 -0.24,0.233 l -17.035,5.487 c -0.149,0.05 -0.312,0.005 -0.415,-0.114 l -4.769,-5.578 -1.413,0.37 -0.021,0.004 c -0.066,0.017 -0.134,0.017 -0.2,0 l -1.414,-0.369 -4.769,5.578 c -0.103,0.119 -0.266,0.164 -0.415,0.114 l -17.0349997,-5.487 c -0.113,-0.035 -0.202,-0.121 -0.24,-0.233 -0.036,-0.11 -0.014,-0.231 0.058,-0.322 l 3.466,-4.395 c 0.051,-0.064 0.121,-0.109 0.2,-0.13 l 20.1459997,-5.398 c 0.074,-0.019 0.151,-0.021 0.226,-0.005 l 20.147,5.399 c 0.08,0.021 0.15,0.067 0.2,0.13 l 3.466,4.395 z m -23.915,-0.804 14.426,-3.75 -14.426,-3.844 -14.447,3.849 z m -1.264,4.89 c 0.152,0.052 0.253,0.188 0.253,0.34 v 17.28 c 0,0.12 -0.063,0.232 -0.169,0.3 -0.107,0.067 -0.239,0.08 -0.356,0.033 l -18.2399997,-7.147 c -0.14,-0.052 -0.233,-0.184 -0.235,-0.333 v -9.393 c 0,-0.116 0.059,-0.225 0.159,-0.293 0.101,-0.068 0.227,-0.085 0.343,-0.048 0,0 12.9179997,4.166 13.2699997,4.281 0.297,0.097 0.488,-0.146 0.488,-0.146 l 4.065,-4.76 c 0.105,-0.12 0.271,-0.164 0.422,-0.113 z" />
      </g>
      <path
         style="fill:#ffffff"
         inkscape:connector-curvature="0"
         id="path31"
         d="m 45.674091,25.998128 c 0.094,0.068 0.15,0.177 0.15,0.293 v 9.393 c 0,0.146 -0.087,0.277 -0.222,0.333 l -17.28,7.147 c -0.111,0.046 -0.238,0.034 -0.338,-0.034 -0.1,-0.067 -0.16,-0.18 -0.16,-0.3 v -17.279 c 0,-0.153 0.096,-0.288 0.24,-0.339 0.144,-0.051 0.304,-0.006 0.4,0.113 l 3.85,4.76 c 0,0 0.182,0.243 0.462,0.146 0.334,-0.115 12.572,-4.281 12.572,-4.281 0.11,-0.038 0.231,-0.02 0.326,0.048 z m 5.075,-4.873 c 0.072,0.091 0.094,0.212 0.058,0.322 -0.038,0.112 -0.127,0.198 -0.24,0.233 l -17.035,5.487 c -0.149,0.05 -0.312,0.005 -0.415,-0.114 l -4.769,-5.578 -1.413,0.37 -0.021,0.004 c -0.066,0.017 -0.134,0.017 -0.2,0 l -1.414,-0.369 -4.769,5.578 c -0.103,0.119 -0.266,0.164 -0.415,0.114 l -17.0349997,-5.487 c -0.113,-0.035 -0.202,-0.121 -0.24,-0.233 -0.036,-0.11 -0.014,-0.231 0.058,-0.322 l 3.466,-4.395 c 0.051,-0.064 0.121,-0.109 0.2,-0.13 l 20.1459997,-5.398 c 0.074,-0.019 0.151,-0.021 0.226,-0.005 l 20.147,5.399 c 0.08,0.021 0.15,0.067 0.2,0.13 l 3.466,4.395 z m -23.915,-0.804 14.426,-3.75 -14.426,-3.844 -14.447,3.849 z m -1.264,4.89 c 0.152,0.052 0.253,0.188 0.253,0.34 v 17.28 c 0,0.12 -0.063,0.232 -0.169,0.3 -0.107,0.067 -0.239,0.08 -0.356,0.033 l -18.2399997,-7.147 c -0.14,-0.052 -0.233,-0.184 -0.235,-0.333 v -9.393 c 0,-0.116 0.059,-0.225 0.159,-0.293 0.101,-0.068 0.227,-0.085 0.343,-0.048 0,0 12.9179997,4.166 13.2699997,4.281 0.297,0.097 0.488,-0.146 0.488,-0.146 l 4.065,-4.76 c 0.105,-0.12 0.271,-0.164 0.422,-0.113 z" />
    </g>
  </g>
  <g
     aria-label=""
     transform="scale(-1,1)"
     style="font-style:normal;font-variant:normal;font-weight:normal;font-stretch:normal;font-size:30px;line-height:125%;font-family:FontAwesome;-inkscape-font-specification:FontAwesome;letter-spacing:0px;word-spacing:0px;fill:#4f2d2d;fill-opacity:1;stroke:none;stroke-width:0.75px;stroke-linecap:butt;stroke-linejoin:miter;stroke-opacity:1"
     id="text876">
    <path
       d="m -38.178565,43.769774 c -1.071428,-1.071428 -3.75,0 -5.357143,1.607143 l -2.678571,2.678572 -11.132813,-2.661831 c -0.16741,-0.05022 -0.368303,0.01674 -0.502232,0.133929 l -2.142857,2.142857 c -0.117187,0.117187 -0.167411,0.301339 -0.15067,0.452009 0.03348,0.167411 0.133929,0.31808 0.284599,0.401786 l 8.504464,4.670759 -4.335938,4.335937 -3.247767,-0.887277 c -0.03348,-0.01674 -0.08371,-0.01674 -0.133929,-0.01674 -0.133929,0 -0.284598,0.05022 -0.385045,0.15067 l -1.607143,1.623884 c -0.100446,0.117187 -0.16741,0.267857 -0.150669,0.418527 0.01674,0.150669 0.0837,0.301339 0.217634,0.385044 l 4.21875,3.164063 3.164062,4.21875 c 0.100447,0.133928 0.234375,0.200893 0.401786,0.217634 0.01674,0 0.01674,0 0.03348,0 0.133929,0 0.284598,-0.05022 0.385045,-0.15067 l 1.607143,-1.607143 c 0.133928,-0.15067 0.184151,-0.334821 0.133928,-0.518973 l -0.887277,-3.247768 4.335938,-4.335937 4.670759,8.504464 c 0.06696,0.150669 0.200893,0.234375 0.351562,0.267857 0.05022,0.01674 0.08371,0.01674 0.117188,0.01674 0.117187,0 0.234375,-0.03348 0.31808,-0.100446 l 2.142857,-1.607143 c 0.167411,-0.133929 0.251116,-0.351563 0.200893,-0.552456 l -2.678571,-11.651785 2.695312,-2.695313 c 1.607143,-1.607143 2.678572,-4.285714 1.607143,-5.357143 z"
       style="fill:#4f2d2d;fill-opacity:1;stroke-width:0.75px"
       id="path905" />
  </g>
  <g
     aria-label=""
     transform="scale(-1,1)"
     style="font-style:normal;font-variant:normal;font-weight:normal;font-stretch:normal;font-size:30px;line-height:125%;font-family:FontAwesome;-inkscape-font-specification:FontAwesome;letter-spacing:0px;word-spacing:0px;fill:#ffffff;fill-opacity:1;stroke:none;stroke-width:0.75px;stroke-linecap:butt;stroke-linejoin:miter;stroke-opacity:1"
     id="text868">
    <path
       d="m -36.54721,43.028243 c -1.071428,-1.071429 -3.75,0 -5.357142,1.607143 l -2.678572,2.678571 -11.132812,-2.66183 c -0.167411,-0.05022 -0.368304,0.01674 -0.502233,0.133928 l -2.142857,2.142858 c -0.117187,0.117187 -0.16741,0.301339 -0.150669,0.452009 0.03348,0.16741 0.133928,0.31808 0.284598,0.401785 l 8.504464,4.670759 -4.335937,4.335938 -3.247768,-0.887277 c -0.03348,-0.01674 -0.08371,-0.01674 -0.133929,-0.01674 -0.133928,0 -0.284598,0.05022 -0.385044,0.150669 l -1.607143,1.623884 c -0.100447,0.117188 -0.167411,0.267858 -0.15067,0.418527 0.01674,0.15067 0.08371,0.301339 0.217634,0.385045 l 4.21875,3.164062 3.164063,4.21875 c 0.100446,0.133929 0.234375,0.200893 0.401785,0.217634 0.01674,0 0.01674,0 0.03348,0 0.133929,0 0.284599,-0.05022 0.385045,-0.150669 l 1.607143,-1.607143 c 0.133928,-0.15067 0.184152,-0.334822 0.133928,-0.518973 l -0.887276,-3.247768 4.335937,-4.335938 4.670759,8.504464 c 0.06696,0.15067 0.200893,0.234375 0.351563,0.267858 0.05022,0.01674 0.08371,0.01674 0.117187,0.01674 0.117188,0 0.234375,-0.03348 0.31808,-0.100447 l 2.142858,-1.607143 c 0.16741,-0.133928 0.251116,-0.351562 0.200892,-0.552455 l -2.678571,-11.651786 2.695313,-2.695312 c 1.607142,-1.607143 2.678571,-4.285714 1.607142,-5.357143 z"
       style="fill:#ffffff;fill-opacity:1;stroke-width:0.75px"
       id="path902" />
  </g>
  <g
     id="g892"
     transform="translate(-1.4088983,0.5190678)">
    <g
       aria-label=""
       style="font-style:normal;font-variant:normal;font-weight:normal;font-stretch:normal;font-size:22.00251198px;line-height:125%;font-family:FontAwesome;-inkscape-font-specification:FontAwesome;letter-spacing:0px;word-spacing:0px;fill:#4d2c2c;fill-opacity:1;stroke:none;stroke-width:0.55006278px;stroke-linecap:butt;stroke-linejoin:miter;stroke-opacity:1"
       id="text886">
      <path
         d="m 21.71358,61.705225 c 0,0.859473 -0.712135,1.571608 -1.571608,1.571608 -0.859473,0 -1.571608,-0.712135 -1.571608,-1.571608 0,-0.859474 0.712135,-1.571608 1.571608,-1.571608 0.859473,0 1.571608,0.712134 1.571608,1.571608 z m -4.714824,-6.286432 v -0.368346 c 0,-0.04911 0.07367,-0.233286 0.110504,-0.27012 l 2.394247,-2.394247 c 0.03683,-0.03683 0.221007,-0.110503 0.27012,-0.110503 h 1.939953 v 3.143216 z m 15.71608,6.286432 c 0,0.859473 -0.712135,1.571608 -1.571608,1.571608 -0.859473,0 -1.571608,-0.712135 -1.571608,-1.571608 0,-0.859474 0.712135,-1.571608 1.571608,-1.571608 0.859473,0 1.571608,0.712134 1.571608,1.571608 z m 3.143216,-13.358668 c 0,-0.429737 -0.356067,-0.785804 -0.785804,-0.785804 H 22.499384 c -0.429736,0 -0.785804,0.356067 -0.785804,0.785804 v 2.357412 h -1.96451 c -0.442014,0 -1.031367,0.245563 -1.338322,0.552518 l -2.431081,2.431081 c -0.675301,0.6753 -0.552519,1.645277 -0.552519,2.517029 v 3.92902 c -0.429736,0 -0.785804,0.356067 -0.785804,0.785804 0,0.908585 0.957699,0.785804 1.571608,0.785804 h 0.785804 c 0,1.731224 1.411992,3.143216 3.143216,3.143216 1.731225,0 3.143216,-1.411992 3.143216,-3.143216 h 4.714824 c 0,1.731224 1.411992,3.143216 3.143216,3.143216 1.731225,0 3.143216,-1.411992 3.143216,-3.143216 0.61391,0 1.571608,0.122781 1.571608,-0.785804 z"
         style="fill:#4d2c2c;fill-opacity:1;stroke-width:0.55006278px"
         id="path908" />
    </g>
    <g
       aria-label=""
       style="font-style:normal;font-variant:normal;font-weight:normal;font-stretch:normal;font-size:22.00251198px;line-height:125%;font-family:FontAwesome;-inkscape-font-specification:FontAwesome;letter-spacing:0px;word-spacing:0px;fill:#ffffff;fill-opacity:1;stroke:none;stroke-width:0.55006278px;stroke-linecap:butt;stroke-linejoin:miter;stroke-opacity:1"
       id="text882">
      <path
         d="m 20.304682,60.667089 c 0,0.859473 -0.712135,1.571608 -1.571608,1.571608 -0.859473,0 -1.571608,-0.712135 -1.571608,-1.571608 0,-0.859473 0.712135,-1.571608 1.571608,-1.571608 0.859473,0 1.571608,0.712135 1.571608,1.571608 z m -4.714824,-6.286432 v -0.368346 c 0,-0.04911 0.07367,-0.233285 0.110504,-0.27012 l 2.394246,-2.394246 c 0.03683,-0.03684 0.221008,-0.110504 0.27012,-0.110504 h 1.939954 v 3.143216 z m 15.71608,6.286432 c 0,0.859473 -0.712135,1.571608 -1.571608,1.571608 -0.859473,0 -1.571608,-0.712135 -1.571608,-1.571608 0,-0.859473 0.712135,-1.571608 1.571608,-1.571608 0.859473,0 1.571608,0.712135 1.571608,1.571608 z m 3.143216,-13.358668 c 0,-0.429736 -0.356068,-0.785804 -0.785804,-0.785804 H 21.090486 c -0.429737,0 -0.785804,0.356068 -0.785804,0.785804 v 2.357412 h -1.96451 c -0.442015,0 -1.031368,0.245564 -1.338323,0.552519 l -2.431081,2.431081 c -0.6753,0.6753 -0.552518,1.645277 -0.552518,2.517028 v 3.92902 c -0.429737,0 -0.785804,0.356067 -0.785804,0.785804 0,0.908586 0.957699,0.785804 1.571608,0.785804 h 0.785804 c 0,1.731224 1.411991,3.143216 3.143216,3.143216 1.731224,0 3.143216,-1.411992 3.143216,-3.143216 h 4.714824 c 0,1.731224 1.411991,3.143216 3.143216,3.143216 1.731224,0 3.143216,-1.411992 3.143216,-3.143216 0.613909,0 1.571608,0.122782 1.571608,-0.785804 z"
         style="fill:#ffffff;fill-opacity:1;stroke-width:0.55006278px"
         id="path911" />
    </g>
  </g>
  <g
     id="g44">
    <g
       aria-label=""
       style="font-style:normal;font-variant:normal;font-weight:normal;font-stretch:normal;font-size:17.89830589px;line-height:125%;font-family:FontAwesome;-inkscape-font-specification:FontAwesome;letter-spacing:0px;word-spacing:0px;fill:#4d2c2c;fill-opacity:1;stroke:none;stroke-width:0.44745764px;stroke-linecap:butt;stroke-linejoin:miter;stroke-opacity:1"
       id="text916">
      <path
         d="m 47.366528,35.019064 c 0,-0.59428 0.209745,-1.118645 0.664195,-1.573094 0.419491,-0.419491 0.943855,-0.664195 1.573093,-0.664195 h 3.355932 v 11.186442 h -3.355932 c -0.629238,0 -1.153602,-0.209746 -1.573093,-0.664195 -0.45445,-0.419492 -0.664195,-0.943856 -0.664195,-1.573094 z m 20.135594,-2.237289 c 0.594279,0 1.118644,0.244704 1.573093,0.664195 0.419492,0.454449 0.664195,0.978814 0.664195,1.573094 v 6.711864 c 0,0.629238 -0.244703,1.153602 -0.664195,1.573094 -0.454449,0.454449 -0.978814,0.664195 -1.573093,0.664195 H 64.146189 V 32.781775 Z M 54.078392,43.968217 V 32.781775 h 8.949153 v 11.186442 z m 6.152543,-8.11017 c -0.244703,0 -0.454449,0.104873 -0.59428,0.244703 -0.174788,0.174788 -0.244703,0.384534 -0.244703,0.59428 0,0.244703 0.06991,0.454449 0.244703,0.594279 0.139831,0.174789 0.349577,0.244704 0.59428,0.244704 0.209746,0 0.419491,-0.06991 0.59428,-0.244704 0.13983,-0.13983 0.244703,-0.349576 0.244703,-0.594279 0,-0.209746 -0.104873,-0.419492 -0.244703,-0.59428 -0.174789,-0.13983 -0.384534,-0.244703 -0.59428,-0.244703 z m 0,3.355932 c -0.244703,0 -0.454449,0.104873 -0.59428,0.244703 -0.174788,0.174789 -0.244703,0.384534 -0.244703,0.59428 0,0.244704 0.06991,0.454449 0.244703,0.59428 0.139831,0.174788 0.349577,0.244703 0.59428,0.244703 0.209746,0 0.419491,-0.06992 0.59428,-0.244703 0.13983,-0.139831 0.244703,-0.349576 0.244703,-0.59428 0,-0.209746 -0.104873,-0.419491 -0.244703,-0.59428 -0.174789,-0.13983 -0.384534,-0.244703 -0.59428,-0.244703 z m -3.355932,-3.355932 c -0.244704,0 -0.45445,0.104873 -0.59428,0.244703 -0.174788,0.174788 -0.244704,0.384534 -0.244704,0.59428 0,0.244703 0.06992,0.454449 0.244704,0.594279 0.13983,0.174789 0.349576,0.244704 0.59428,0.244704 0.209745,0 0.419491,-0.06991 0.594279,-0.244704 0.139831,-0.13983 0.244704,-0.349576 0.244704,-0.594279 0,-0.209746 -0.104873,-0.419492 -0.244704,-0.59428 -0.174788,-0.13983 -0.384534,-0.244703 -0.594279,-0.244703 z m 0,3.355932 c -0.244704,0 -0.45445,0.104873 -0.59428,0.244703 -0.174788,0.174789 -0.244704,0.384534 -0.244704,0.59428 0,0.244704 0.06992,0.454449 0.244704,0.59428 0.13983,0.174788 0.349576,0.244703 0.59428,0.244703 0.209745,0 0.419491,-0.06992 0.594279,-0.244703 0.139831,-0.139831 0.244704,-0.349576 0.244704,-0.59428 0,-0.209746 -0.104873,-0.419491 -0.244704,-0.59428 -0.174788,-0.13983 -0.384534,-0.244703 -0.594279,-0.244703 z"
         style="fill:#4d2c2c;fill-opacity:1;stroke-width:0.44745764px"
         id="path46" />
    </g>
    <g
       aria-label=""
       style="font-style:normal;font-variant:normal;font-weight:normal;font-stretch:normal;font-size:17.89830589px;line-height:125%;font-family:FontAwesome;-inkscape-font-specification:FontAwesome;letter-spacing:0px;word-spacing:0px;fill:#ffffff;fill-opacity:1;stroke:none;stroke-width:0.44745764px;stroke-linecap:butt;stroke-linejoin:miter;stroke-opacity:1"
       id="text900">
      <path
         d="m 46.254238,33.980928 c 0,-0.59428 0.209746,-1.118644 0.664195,-1.573093 0.419492,-0.419492 0.943856,-0.664195 1.573093,-0.664195 h 3.355933 v 11.186441 h -3.355933 c -0.629237,0 -1.153601,-0.209746 -1.573093,-0.664195 -0.454449,-0.419491 -0.664195,-0.943856 -0.664195,-1.573093 z M 66.389832,31.74364 c 0.59428,0 1.118644,0.244703 1.573094,0.664195 0.419491,0.454449 0.664194,0.978813 0.664194,1.573093 v 6.711865 c 0,0.629237 -0.244703,1.153602 -0.664194,1.573093 -0.45445,0.454449 -0.978814,0.664195 -1.573094,0.664195 H 63.0339 V 31.74364 Z M 52.966103,42.930081 V 31.74364 h 8.949153 v 11.186441 z m 6.152542,-8.11017 c -0.244703,0 -0.454449,0.104873 -0.594279,0.244704 -0.174788,0.174788 -0.244704,0.384533 -0.244704,0.594279 0,0.244704 0.06992,0.454449 0.244704,0.59428 0.13983,0.174788 0.349576,0.244703 0.594279,0.244703 0.209746,0 0.419492,-0.06992 0.59428,-0.244703 0.139831,-0.139831 0.244704,-0.349576 0.244704,-0.59428 0,-0.209746 -0.104873,-0.419491 -0.244704,-0.594279 -0.174788,-0.139831 -0.384534,-0.244704 -0.59428,-0.244704 z m 0,3.355933 c -0.244703,0 -0.454449,0.104872 -0.594279,0.244703 -0.174788,0.174788 -0.244704,0.384534 -0.244704,0.59428 0,0.244703 0.06992,0.454449 0.244704,0.594279 0.13983,0.174788 0.349576,0.244704 0.594279,0.244704 0.209746,0 0.419492,-0.06992 0.59428,-0.244704 0.139831,-0.13983 0.244704,-0.349576 0.244704,-0.594279 0,-0.209746 -0.104873,-0.419492 -0.244704,-0.59428 -0.174788,-0.139831 -0.384534,-0.244703 -0.59428,-0.244703 z m -3.355932,-3.355933 c -0.244703,0 -0.454449,0.104873 -0.59428,0.244704 -0.174788,0.174788 -0.244703,0.384533 -0.244703,0.594279 0,0.244704 0.06992,0.454449 0.244703,0.59428 0.139831,0.174788 0.349577,0.244703 0.59428,0.244703 0.209746,0 0.419492,-0.06992 0.59428,-0.244703 0.13983,-0.139831 0.244703,-0.349576 0.244703,-0.59428 0,-0.209746 -0.104873,-0.419491 -0.244703,-0.594279 -0.174788,-0.139831 -0.384534,-0.244704 -0.59428,-0.244704 z m 0,3.355933 c -0.244703,0 -0.454449,0.104872 -0.59428,0.244703 -0.174788,0.174788 -0.244703,0.384534 -0.244703,0.59428 0,0.244703 0.06992,0.454449 0.244703,0.594279 0.139831,0.174788 0.349577,0.244704 0.59428,0.244704 0.209746,0 0.419492,-0.06992 0.59428,-0.244704 0.13983,-0.13983 0.244703,-0.349576 0.244703,-0.594279 0,-0.209746 -0.104873,-0.419492 -0.244703,-0.59428 -0.174788,-0.139831 -0.384534,-0.244703 -0.59428,-0.244703 z"
         style="fill:#ffffff;fill-opacity:1;stroke-width:0.44745764px"
         id="path49" />
    </g>
  </g>
</svg>
