<svg version="1.1" xmlns="http://www.w3.org/2000/svg" xmlns:xlink="http://www.w3.org/1999/xlink" width="70" height="70" viewBox="0,0,70,70" xmlns:odoo-icon="https://ivantodorovich.github.io/odoo-icon" odoo-icon:version="1.0" odoo-icon:size="70" odoo-icon:icon-size="0.65" odoo-icon:icon-color="#FFFFFF" odoo-icon:icon-flat-shadow-angle="135" odoo-icon:background-color="#fdd835" odoo-icon:background-gradient="0.2" odoo-icon:box-radius="3.5" odoo-icon:odoo-version="16.0"><defs><linearGradient x1="70" y1="0" x2="0" y2="70" gradientUnits="userSpaceOnUse" id="color-1"><stop offset="0" stop-color="#ffff68"/><stop offset="1" stop-color="#fdd835"/></linearGradient></defs><g fill="none" fill-rule="nonzero" stroke="none" stroke-width="1" stroke-linecap="butt" stroke-linejoin="miter" stroke-miterlimit="10" stroke-dasharray="" stroke-dashoffset="0" font-family="none" font-weight="none" font-size="none" text-anchor="none" style="mix-blend-mode: normal"><path d="M3.5,70c-1.933,0 -3.5,-1.567 -3.5,-3.5v-63c0,-1.933 1.567,-3.5 3.5,-3.5h63c1.933,0 3.5,1.567 3.5,3.5v63c0,1.933 -1.567,3.5 -3.5,3.5z" id="box" fill="url(#color-1)"/><path d="M65,1h-61c-1.95033,0 -3.2667,0.63396 -3.9491,1.90189c0.28378,-1.64806 1.72001,-2.90189 3.4491,-2.90189h63c1.72965,0 3.16627,1.25466 3.44938,2.90352c-0.69803,-1.26902 -2.34782,-1.90352 -4.94938,-1.90352z" id="topBoxShadow" fill="#ffffff" opacity="0.383"/><path d="M4,69h61c2.66667,0 4.33333,-1 5,-3v0.5c0,1.933 -1.567,3.5 -3.5,3.5h-63c-1.933,0 -3.5,-1.567 -3.5,-3.5c0,-0.1611 0,-0.32777 0,-0.5c0.66667,2 2,3 4,3z" id="bottomBoxShadow" fill="#000000" opacity="0.383"/><path d="M26.85824,42.88793l-3.24301,3.24301l-3.15083,-3.15083c-2.02861,2.59883 -3.31643,5.69832 -3.72601,8.97004h4.46183v4.59983h-9.20022v-2.30019c0,-11.13223 7.91185,-20.4009 18.39989,-22.53991v-4.59983l-18.39989,-7.35985v-4.59983h46v4.59983l-18.39989,7.35985v4.59983c10.48804,2.13901 18.39989,11.40823 18.39989,22.53991v2.30019h-9.20022v-4.59983h4.46183c-0.40959,-3.27172 -1.69741,-6.37121 -3.72601,-8.97004l-3.15083,3.15083l-3.24301,-3.24301l3.15083,-3.17401c-2.60766,-2.02916 -5.71433,-3.31643 -8.99322,-3.72601v4.46183h-4.59983v-4.46183c-3.35783,0.414 -6.44021,1.74819 -8.99322,3.72601zM35.00028,49.64996c2.54031,0 4.59983,2.05952 4.59983,4.59983c0,2.54031 -2.05952,4.59983 -4.59983,4.59983c-0.73582,0 -1.42582,-0.16118 -2.02419,-0.483l-8.85522,-4.11683l8.85522,-4.11683c0.59782,-0.32182 1.28782,-0.483 2.02419,-0.483z" id="shadow" fill="#000000" opacity="0.3"/><path d="M12,13.15037h46v4.59983l-13.5351,13.5351c7.97585,3.61108 13.5351,11.63346 13.5351,20.96449v2.30019l-15.45001,15.45001h-39.04999c-1.933,0 -3.5,-1.567 -3.5,-3.5l0,-41.34963z" id="flatShadow" fill="#000000" opacity="0.324"/><path d="M26.85824,40.88793l-3.24301,3.24301l-3.15083,-3.15083c-2.02861,2.59883 -3.31643,5.69832 -3.72601,8.97004h4.46183v4.59983h-9.20022v-2.30019c0,-11.13223 7.91185,-20.4009 18.39989,-22.53991v-4.59983l-18.39989,-7.35985v-4.59983h46v4.59983l-18.39989,7.35985v4.59983c10.48804,2.13901 18.39989,11.40823 18.39989,22.53991v2.30019h-9.20022v-4.59983h4.46183c-0.40959,-3.27172 -1.69741,-6.37121 -3.72601,-8.97004l-3.15083,3.15083l-3.24301,-3.24301l3.15083,-3.17401c-2.60766,-2.02916 -5.71433,-3.31643 -8.99322,-3.72601v4.46183h-4.59983v-4.46183c-3.35783,0.414 -6.44021,1.74819 -8.99322,3.72601zM35.00028,47.64996c2.54031,0 4.59983,2.05952 4.59983,4.59983c0,2.54031 -2.05952,4.59983 -4.59983,4.59983c-0.73582,0 -1.42582,-0.16118 -2.02419,-0.483l-8.85522,-4.11683l8.85522,-4.11683c0.59782,-0.32182 1.28782,-0.483 2.02419,-0.483z" id="icon" fill="#ffffff"/></g></svg>